<svg
    xmlns="http://www.w3.org/2000/svg"
    xmlns:xlink="http://www.w3.org/1999/xlink" version="1.1" x="0px" y="0px" viewBox="0 0 100 100" enable-background="new 0 0 100 100" xml:space="preserve">
    <rect fill="#644bd8" x="0" y="0" width="100" height="100" rx="50" ry="50"/>
    <g transform="rotate(30)translate(3,-48)scale(1.3)">
      <path fill="#fff" d="M44.711,40.599c-0.865-10.093-0.258-15.998,1.911-18.584c0.739-0.882,1.867-1.425,3.093-1.489  c1.387-0.07,2.757,0.465,3.848,1.518c0.884,0.853,1.484,2.593,0.711,4.397c-0.442,1.034-1.294,1.828-2.277,2.125  c-0.884,0.269-1.819,0.124-2.628-0.407c-0.578-0.378-0.739-1.153-0.36-1.73c0.378-0.578,1.155-0.738,1.73-0.36  c0.247,0.161,0.417,0.14,0.536,0.105c0.276-0.083,0.551-0.364,0.702-0.716c0.315-0.735,0.059-1.414-0.148-1.614  c-0.586-0.565-1.294-0.869-1.981-0.82c-0.528,0.028-1.018,0.252-1.31,0.599c-1.669,1.99-2.118,7.63-1.334,16.764  c0.312,3.637,1.262,7.884,2.34,11.806c0.345,2.495,0.638,5.233,0.378,6.326c-0.86-1.113-2.134-4.82-2.929-7.132  c-0.311-0.903-0.602-1.74-0.883-2.524C45.453,46.04,44.934,43.19,44.711,40.599z M54.277,40.343  c-0.501-0.174-1.711-0.516-2.772-0.516c-0.768,0-1.458,0.179-1.744,0.731c-1.318,2.544,3.511,18.943,0.481,19.399  C50.161,59.986,50.08,60,50,60c-2.784,0-5.697-16.85-8.677-16.85c-2.354,0-4.9,7.405-4.9,12.664  c0,19.675,9.829,23.843,13.308,23.843s13.308-4.167,13.308-23.843C63.039,48.512,59.208,42.057,54.277,40.343z"></path>
    </g>
</svg>
